<mxfile host="www.draw.io" modified="2020-09-23T06:07:43.331Z" agent="5.0 (Windows NT 10.0; Win64; x64) AppleWebKit/537.36 (KHTML, like Gecko) Chrome/84.0.4147.135 Safari/537.36" etag="JFrG3lGDq2SOrlXIczhC" version="13.6.9" type="github">
  <diagram id="opzenCqd1tWLEzS5IthJ" name="Page-1">
    <mxGraphModel dx="832" dy="711" grid="1" gridSize="10" guides="1" tooltips="1" connect="1" arrows="1" fold="1" page="1" pageScale="1" pageWidth="827" pageHeight="1169" math="0" shadow="0">
      <root>
        <mxCell id="0" />
        <mxCell id="1" parent="0" />
        <mxCell id="F2Ut-9kcdUUh86LdlJqX-39" value="" style="rounded=0;whiteSpace=wrap;html=1;shadow=0;fontSize=20;" vertex="1" parent="1">
          <mxGeometry x="620" y="60" width="450" height="720" as="geometry" />
        </mxCell>
        <mxCell id="F2Ut-9kcdUUh86LdlJqX-36" value="" style="rounded=0;whiteSpace=wrap;html=1;shadow=0;" vertex="1" parent="1">
          <mxGeometry x="130" y="60" width="420" height="720" as="geometry" />
        </mxCell>
        <mxCell id="F2Ut-9kcdUUh86LdlJqX-11" value="" style="rounded=1;whiteSpace=wrap;html=1;shadow=0;" vertex="1" parent="1">
          <mxGeometry x="185" y="80" width="280" height="180" as="geometry" />
        </mxCell>
        <mxCell id="F2Ut-9kcdUUh86LdlJqX-7" value="" style="rounded=1;whiteSpace=wrap;html=1;shadow=0;" vertex="1" parent="1">
          <mxGeometry x="185" y="330" width="280" height="220" as="geometry" />
        </mxCell>
        <mxCell id="F2Ut-9kcdUUh86LdlJqX-1" value="ServerA" style="rounded=0;whiteSpace=wrap;html=1;" vertex="1" parent="1">
          <mxGeometry x="280" y="160" width="90" height="40" as="geometry" />
        </mxCell>
        <mxCell id="F2Ut-9kcdUUh86LdlJqX-4" style="edgeStyle=orthogonalEdgeStyle;rounded=0;orthogonalLoop=1;jettySize=auto;html=1;exitX=0.5;exitY=0;exitDx=0;exitDy=0;entryX=0.5;entryY=1;entryDx=0;entryDy=0;" edge="1" parent="1" source="F2Ut-9kcdUUh86LdlJqX-3" target="F2Ut-9kcdUUh86LdlJqX-1">
          <mxGeometry relative="1" as="geometry" />
        </mxCell>
        <mxCell id="F2Ut-9kcdUUh86LdlJqX-3" value="ServerB" style="rounded=0;whiteSpace=wrap;html=1;" vertex="1" parent="1">
          <mxGeometry x="280" y="340" width="90" height="40" as="geometry" />
        </mxCell>
        <mxCell id="F2Ut-9kcdUUh86LdlJqX-9" style="edgeStyle=orthogonalEdgeStyle;rounded=0;orthogonalLoop=1;jettySize=auto;html=1;exitX=0.5;exitY=0;exitDx=0;exitDy=0;exitPerimeter=0;" edge="1" parent="1" source="F2Ut-9kcdUUh86LdlJqX-5" target="F2Ut-9kcdUUh86LdlJqX-3">
          <mxGeometry relative="1" as="geometry" />
        </mxCell>
        <mxCell id="F2Ut-9kcdUUh86LdlJqX-5" value="Client端" style="aspect=fixed;pointerEvents=1;shadow=0;dashed=0;html=1;strokeColor=none;labelPosition=center;verticalLabelPosition=bottom;verticalAlign=top;align=center;fillColor=#00188D;shape=mxgraph.azure.computer" vertex="1" parent="1">
          <mxGeometry x="240" y="480" width="44.44" height="40" as="geometry" />
        </mxCell>
        <mxCell id="F2Ut-9kcdUUh86LdlJqX-10" style="edgeStyle=orthogonalEdgeStyle;rounded=0;orthogonalLoop=1;jettySize=auto;html=1;exitX=0.5;exitY=0;exitDx=0;exitDy=0;exitPerimeter=0;" edge="1" parent="1" source="F2Ut-9kcdUUh86LdlJqX-6">
          <mxGeometry relative="1" as="geometry">
            <mxPoint x="330" y="380" as="targetPoint" />
          </mxGeometry>
        </mxCell>
        <mxCell id="F2Ut-9kcdUUh86LdlJqX-6" value="Client端" style="aspect=fixed;pointerEvents=1;shadow=0;dashed=0;html=1;strokeColor=none;labelPosition=center;verticalLabelPosition=bottom;verticalAlign=top;align=center;fillColor=#00188D;shape=mxgraph.azure.computer" vertex="1" parent="1">
          <mxGeometry x="372.78" y="479" width="44.44" height="40" as="geometry" />
        </mxCell>
        <mxCell id="F2Ut-9kcdUUh86LdlJqX-8" value="客户单位办公室" style="text;html=1;strokeColor=none;fillColor=none;align=center;verticalAlign=middle;whiteSpace=wrap;rounded=0;shadow=0;" vertex="1" parent="1">
          <mxGeometry x="200" y="340" width="50" height="50" as="geometry" />
        </mxCell>
        <mxCell id="F2Ut-9kcdUUh86LdlJqX-12" value="公有云/政务云/自建机房" style="text;html=1;strokeColor=none;fillColor=none;align=center;verticalAlign=middle;whiteSpace=wrap;rounded=0;shadow=0;" vertex="1" parent="1">
          <mxGeometry x="190" y="90" width="80" height="40" as="geometry" />
        </mxCell>
        <mxCell id="F2Ut-9kcdUUh86LdlJqX-14" value="通过VPN或公网" style="text;html=1;strokeColor=none;fillColor=none;align=center;verticalAlign=middle;whiteSpace=wrap;rounded=0;shadow=0;" vertex="1" parent="1">
          <mxGeometry x="260" y="280" width="120" height="30" as="geometry" />
        </mxCell>
        <mxCell id="F2Ut-9kcdUUh86LdlJqX-15" value="" style="rounded=1;whiteSpace=wrap;html=1;shadow=0;" vertex="1" parent="1">
          <mxGeometry x="700" y="90" width="280" height="180" as="geometry" />
        </mxCell>
        <mxCell id="F2Ut-9kcdUUh86LdlJqX-16" value="" style="rounded=1;whiteSpace=wrap;html=1;shadow=0;" vertex="1" parent="1">
          <mxGeometry x="700" y="330" width="280" height="150" as="geometry" />
        </mxCell>
        <mxCell id="F2Ut-9kcdUUh86LdlJqX-17" value="ServerA" style="rounded=0;whiteSpace=wrap;html=1;" vertex="1" parent="1">
          <mxGeometry x="798" y="130" width="90" height="40" as="geometry" />
        </mxCell>
        <mxCell id="F2Ut-9kcdUUh86LdlJqX-18" style="edgeStyle=orthogonalEdgeStyle;rounded=0;orthogonalLoop=1;jettySize=auto;html=1;exitX=0.5;exitY=0;exitDx=0;exitDy=0;entryX=0.5;entryY=1;entryDx=0;entryDy=0;" edge="1" source="F2Ut-9kcdUUh86LdlJqX-19" target="F2Ut-9kcdUUh86LdlJqX-17" parent="1">
          <mxGeometry relative="1" as="geometry" />
        </mxCell>
        <mxCell id="F2Ut-9kcdUUh86LdlJqX-19" value="ServerB" style="rounded=0;whiteSpace=wrap;html=1;" vertex="1" parent="1">
          <mxGeometry x="797.78" y="207" width="90" height="40" as="geometry" />
        </mxCell>
        <mxCell id="F2Ut-9kcdUUh86LdlJqX-20" style="edgeStyle=orthogonalEdgeStyle;rounded=0;orthogonalLoop=1;jettySize=auto;html=1;exitX=0.5;exitY=0;exitDx=0;exitDy=0;exitPerimeter=0;" edge="1" source="F2Ut-9kcdUUh86LdlJqX-21" target="F2Ut-9kcdUUh86LdlJqX-19" parent="1">
          <mxGeometry relative="1" as="geometry">
            <Array as="points">
              <mxPoint x="777" y="360" />
              <mxPoint x="843" y="360" />
            </Array>
          </mxGeometry>
        </mxCell>
        <mxCell id="F2Ut-9kcdUUh86LdlJqX-21" value="Client端" style="aspect=fixed;pointerEvents=1;shadow=0;dashed=0;html=1;strokeColor=none;labelPosition=center;verticalLabelPosition=bottom;verticalAlign=top;align=center;fillColor=#00188D;shape=mxgraph.azure.computer" vertex="1" parent="1">
          <mxGeometry x="755" y="390" width="44.44" height="40" as="geometry" />
        </mxCell>
        <mxCell id="F2Ut-9kcdUUh86LdlJqX-27" style="edgeStyle=orthogonalEdgeStyle;rounded=0;orthogonalLoop=1;jettySize=auto;html=1;exitX=0.5;exitY=0;exitDx=0;exitDy=0;exitPerimeter=0;entryX=0.5;entryY=1;entryDx=0;entryDy=0;" edge="1" parent="1" source="F2Ut-9kcdUUh86LdlJqX-23" target="F2Ut-9kcdUUh86LdlJqX-19">
          <mxGeometry relative="1" as="geometry">
            <Array as="points">
              <mxPoint x="910" y="360" />
              <mxPoint x="843" y="360" />
            </Array>
          </mxGeometry>
        </mxCell>
        <mxCell id="F2Ut-9kcdUUh86LdlJqX-23" value="Client端" style="aspect=fixed;pointerEvents=1;shadow=0;dashed=0;html=1;strokeColor=none;labelPosition=center;verticalLabelPosition=bottom;verticalAlign=top;align=center;fillColor=#00188D;shape=mxgraph.azure.computer" vertex="1" parent="1">
          <mxGeometry x="887.78" y="389" width="44.44" height="40" as="geometry" />
        </mxCell>
        <mxCell id="F2Ut-9kcdUUh86LdlJqX-25" value="公有云/政务云/自建机房" style="text;html=1;strokeColor=none;fillColor=none;align=center;verticalAlign=middle;whiteSpace=wrap;rounded=0;shadow=0;" vertex="1" parent="1">
          <mxGeometry x="705" y="100" width="80" height="40" as="geometry" />
        </mxCell>
        <mxCell id="F2Ut-9kcdUUh86LdlJqX-26" value="通过VPN或公网" style="text;html=1;strokeColor=none;fillColor=none;align=center;verticalAlign=middle;whiteSpace=wrap;rounded=0;shadow=0;" vertex="1" parent="1">
          <mxGeometry x="785" y="286" width="120" height="30" as="geometry" />
        </mxCell>
        <mxCell id="F2Ut-9kcdUUh86LdlJqX-28" value="云桌面" style="text;html=1;strokeColor=none;fillColor=none;align=center;verticalAlign=middle;whiteSpace=wrap;rounded=0;shadow=0;" vertex="1" parent="1">
          <mxGeometry x="715" y="350" width="40" height="20" as="geometry" />
        </mxCell>
        <mxCell id="F2Ut-9kcdUUh86LdlJqX-29" value="用户" style="shape=umlActor;verticalLabelPosition=bottom;verticalAlign=top;html=1;outlineConnect=0;rounded=1;shadow=0;" vertex="1" parent="1">
          <mxGeometry x="790" y="620" width="30" height="40" as="geometry" />
        </mxCell>
        <mxCell id="F2Ut-9kcdUUh86LdlJqX-30" value="" style="aspect=fixed;pointerEvents=1;shadow=0;dashed=0;html=1;strokeColor=none;labelPosition=center;verticalLabelPosition=bottom;verticalAlign=top;align=center;fillColor=#00188D;shape=mxgraph.azure.laptop;rounded=1;" vertex="1" parent="1">
          <mxGeometry x="837.78" y="630" width="50" height="30" as="geometry" />
        </mxCell>
        <mxCell id="F2Ut-9kcdUUh86LdlJqX-31" value="" style="html=1;shadow=0;dashed=0;align=center;verticalAlign=middle;shape=mxgraph.arrows2.stylisedArrow;dy=0.6;dx=40;notch=15;feather=0.4;rounded=1;rotation=-90;" vertex="1" parent="1">
          <mxGeometry x="787.5" y="530" width="111" height="40" as="geometry" />
        </mxCell>
        <mxCell id="F2Ut-9kcdUUh86LdlJqX-32" value="用户在不同地方接入云桌面" style="text;html=1;strokeColor=none;fillColor=none;align=center;verticalAlign=middle;whiteSpace=wrap;rounded=0;shadow=0;" vertex="1" parent="1">
          <mxGeometry x="870" y="560" width="155" height="20" as="geometry" />
        </mxCell>
        <mxCell id="F2Ut-9kcdUUh86LdlJqX-33" value="用户" style="shape=umlActor;verticalLabelPosition=bottom;verticalAlign=top;html=1;outlineConnect=0;rounded=1;shadow=0;" vertex="1" parent="1">
          <mxGeometry x="285.5" y="700" width="40" height="50" as="geometry" />
        </mxCell>
        <mxCell id="F2Ut-9kcdUUh86LdlJqX-34" value="" style="html=1;shadow=0;dashed=0;align=center;verticalAlign=middle;shape=mxgraph.arrows2.stylisedArrow;dy=0.6;dx=40;notch=15;feather=0.4;rounded=1;rotation=-90;" vertex="1" parent="1">
          <mxGeometry x="250" y="600" width="111" height="40" as="geometry" />
        </mxCell>
        <mxCell id="F2Ut-9kcdUUh86LdlJqX-35" value="用户只能人进场客户办公室使用" style="text;html=1;strokeColor=none;fillColor=none;align=center;verticalAlign=middle;whiteSpace=wrap;rounded=0;shadow=0;" vertex="1" parent="1">
          <mxGeometry x="360" y="630" width="155" height="20" as="geometry" />
        </mxCell>
        <mxCell id="F2Ut-9kcdUUh86LdlJqX-37" value="传统方式" style="text;html=1;strokeColor=none;fillColor=none;align=center;verticalAlign=middle;whiteSpace=wrap;rounded=0;shadow=0;fontSize=20;" vertex="1" parent="1">
          <mxGeometry x="130" y="47" width="70" height="93" as="geometry" />
        </mxCell>
        <mxCell id="F2Ut-9kcdUUh86LdlJqX-38" value="期望方式" style="text;html=1;strokeColor=none;fillColor=none;align=center;verticalAlign=middle;whiteSpace=wrap;rounded=0;shadow=0;fontSize=20;" vertex="1" parent="1">
          <mxGeometry x="620" y="47" width="70" height="93" as="geometry" />
        </mxCell>
        <mxCell id="F2Ut-9kcdUUh86LdlJqX-40" value="方式的转变" style="html=1;shadow=0;dashed=0;align=center;verticalAlign=middle;shape=mxgraph.arrows2.stylisedArrow;dy=0.6;dx=40;notch=15;feather=0.4;rounded=1;fontSize=20;" vertex="1" parent="1">
          <mxGeometry x="500" y="389" width="170" height="60" as="geometry" />
        </mxCell>
        <mxCell id="F2Ut-9kcdUUh86LdlJqX-41" value="&lt;font style=&quot;font-size: 14px&quot;&gt;监督人员+监督工具&lt;/font&gt;" style="shape=umlActor;verticalLabelPosition=bottom;verticalAlign=top;html=1;outlineConnect=0;rounded=1;shadow=0;fontSize=20;" vertex="1" parent="1">
          <mxGeometry x="200" y="391" width="30" height="39" as="geometry" />
        </mxCell>
        <mxCell id="F2Ut-9kcdUUh86LdlJqX-46" style="edgeStyle=orthogonalEdgeStyle;rounded=0;orthogonalLoop=1;jettySize=auto;html=1;exitX=0.5;exitY=0.5;exitDx=0;exitDy=0;exitPerimeter=0;entryX=1;entryY=0.5;entryDx=0;entryDy=0;fontSize=20;" edge="1" parent="1" source="F2Ut-9kcdUUh86LdlJqX-42" target="F2Ut-9kcdUUh86LdlJqX-16">
          <mxGeometry relative="1" as="geometry" />
        </mxCell>
        <mxCell id="F2Ut-9kcdUUh86LdlJqX-42" value="&lt;font style=&quot;font-size: 14px&quot;&gt;监督人员+监督工具&lt;/font&gt;" style="shape=umlActor;verticalLabelPosition=bottom;verticalAlign=top;html=1;outlineConnect=0;rounded=1;shadow=0;fontSize=20;" vertex="1" parent="1">
          <mxGeometry x="1040" y="385" width="30" height="39" as="geometry" />
        </mxCell>
      </root>
    </mxGraphModel>
  </diagram>
</mxfile>
